<svg width="24" height="24" viewBox="0 0 24 24" fill="none" xmlns="http://www.w3.org/2000/svg">
<path d="M1.125 0C.502 0 0 .502 0 1.125v21.75C0 23.498.502 24 1.125 24h21.75c.623 0 1.125-.502 1.125-1.125V1.125C24 .502 23.498 0 22.875 0H1.125zm17.363 9.75c.612 0 1.154.037 1.627.111a6.38 6.38 0 0 1 1.306.34v2.458a3.95 3.95 0 0 0-.643-.361 5.093 5.093 0 0 0-.717-.26 5.453 5.453 0 0 0-1.426-.2c-.3 0-.573.028-.819.086a2.1 2.1 0 0 0-.623.242c-.17.104-.3.229-.393.374a.888.888 0 0 0-.14.49c0 .196.053.373.156.529.104.156.252.304.443.444s.423.276.696.41c.273.135.582.274.926.416.47.197.892.407 1.266.628.374.222.695.473.963.753.268.279.472.598.614.957.142.359.214.776.214 1.253 0 .657-.125 1.21-.373 1.656a3.033 3.033 0 0 1-.109.161c-.533.566-1.249.848-2.153.848-.616 0-1.169-.068-1.659-.205a4.46 4.46 0 0 1-1.317-.598v-2.72c.4.317.904.567 1.512.75.61.182 1.153.274 1.632.274.21 0 .405-.025.585-.076.18-.051.334-.123.462-.216.127-.093.225-.205.296-.336.07-.131.105-.275.105-.433 0-.211-.046-.392-.139-.543a2.353 2.353 0 0 0-.378-.441 2.725 2.725 0 0 0-.569-.351 6.92 6.92 0 0 0-.716-.272 22.807 22.807 0 0 1-1.138-.447 7.498 7.498 0 0 1-1.085-.61 3.11 3.11 0 0 1-.787-.816 2.084 2.084 0 0 1-.312-1.134c0-.653.107-1.201.323-1.642.216-.441.514-.805.894-1.093.38-.287.832-.498 1.356-.632.524-.134 1.085-.2 1.683-.2.616 0 1.2.085 1.751.254.551.169 1.016.364 1.396.586v2.57a6.197 6.197 0 0 0-1.437-.616c-.527-.156-1.058-.234-1.592-.234-.22 0-.42.022-.598.067a1.4 1.4 0 0 0-.444.172.743.743 0 0 0-.274.264.58.58 0 0 0-.095.318c0 .235.047.439.14.614.094.174.224.32.39.438.166.117.364.218.592.301.229.083.56.19.994.322zM6.468 14.97c0 .442.014.795.041 1.059.027.265.073.477.139.638.065.16.151.275.257.344a.618.618 0 0 0 .344.103c.214 0 .405-.073.572-.22a2.263 2.263 0 0 0 .457-.63c.114-.28.17-.646.17-1.098V9.789h2.34v5.915c0 .946-.155 1.688-.466 2.228a3.24 3.24 0 0 1-1.266 1.283c-.533.3-1.15.45-1.853.45-.27 0-.532-.024-.785-.072a3.441 3.441 0 0 1-.785-.234 2.734 2.734 0 0 1-.696-.417 2.05 2.05 0 0 1-.466-.636 2.39 2.39 0 0 1-.193-.840c-.027-.334-.041-.734-.041-1.201V9.789h2.34v5.181z" fill="#3178C6"/>
</svg>
